# xmcd CD database file
#
# Track frame offsets:
#	150
#	12370
#	21600
#	37042
#	51385
#	63110
#	77097
#	92935
#	110037
#	124057
#	138157
#	153625
#	165092
#	179350
#	193980
#	204422
#
# Disc length: 2934 seconds
#
# Revision: 2
# Processed by: cddbd v1.5.1PL0 Copyright (c) Steve Scherf et al.
# Submitted via: CDex 1.51
#
DISCID=e00b7410
DTITLE=John Lee Hooker - Blues For Big Town
DYEAR=1900
DGENRE=Blues
TTITLE0=Mad Man Blues
TTITLE1=Hey Boogie
TTITLE2=Just Me And My Telephone
TTITLE3=Dreamin' Blues
TTITLE4=Walkin' The Boogie
TTITLE5=I Don't Want Your Money
TTITLE6=Hey Baby
TTITLE7=The Journey
TTITLE8=Bluebird
TTITLE9=Apologize
TTITLE10=Lonely Boy Boogie
TTITLE11=Please Don't Go
TTITLE12=Worried Life Blues
TTITLE13=Blues For Big Town
TTITLE14=Big Fine Woman
TTITLE15=Blues For Christmas
EXTD=
EXTT0=
EXTT1=
EXTT2=
EXTT3=
EXTT4=
EXTT5=
EXTT6=
EXTT7=
EXTT8=
EXTT9=
EXTT10=
EXTT11=
EXTT12=
EXTT13=
EXTT14=
EXTT15=
PLAYORDER=
